PathFileType	4	(X/Y/Z)	C:\Users\willi\Documents\UniDataLokal\DATA_Hans_PhD\TD01\3DGAIT_A_W12\marker_experimental.trc
DataRate	CameraRate	NumFrames	NumMarkers	Units	OrigDataRate	OrigDataStartFrame	OrigNumFrames
100.000000	100.000000	4	76	mm	100.000000	65	174
Frame#	Time	RBAK			C7			CLAV			T10			STRN			RASI			RPSI			LPSI			LASI			RTHI1			RTHI2			RTHI3			RTHI			RKNE			RKNEM			RPAT			RTIB1			RTIB2			RTIB3			RTIB			RANK			RANKM			RHEEL			RTOE			RM5			LTHI1			LTHI2			LTHI3			LTHI			LKNE			LKNEM			LPAT			LTIB1			LTIB2			LTIB3			LTIB			LANK			LANKM			LHEEL			LTOE			LM5			*41			*42			*43			*44			*45			*46			*47			*48			*49			*50			*51			*52			*53			*54			*55			*56			*57			*58			*59			*60			*61			*62			*63			*64			*65			*66			*67			*68			*69			*70			*71			*72			*73			*74			*75			
		X1	Y1	Z1	X2	Y2	Z2	X3	Y3	Z3	X4	Y4	Z4	X5	Y5	Z5	X6	Y6	Z6	X7	Y7	Z7	X8	Y8	Z8	X9	Y9	Z9	X10	Y10	Z10	X11	Y11	Z11	X12	Y12	Z12	X13	Y13	Z13	X14	Y14	Z14	X15	Y15	Z15	X16	Y16	Z16	X17	Y17	Z17	X18	Y18	Z18	X19	Y19	Z19	X20	Y20	Z20	X21	Y21	Z21	X22	Y22	Z22	X23	Y23	Z23	X24	Y24	Z24	X25	Y25	Z25	X26	Y26	Z26	X27	Y27	Z27	X28	Y28	Z28	X29	Y29	Z29	X30	Y30	Z30	X31	Y31	Z31	X32	Y32	Z32	X33	Y33	Z33	X34	Y34	Z34	X35	Y35	Z35	X36	Y36	Z36	X37	Y37	Z37	X38	Y38	Z38	X39	Y39	Z39	X40	Y40	Z40	X41	Y41	Z41	X42	Y42	Z42	X43	Y43	Z43	X44	Y44	Z44	X45	Y45	Z45	X46	Y46	Z46	X47	Y47	Z47	X48	Y48	Z48	X49	Y49	Z49	X50	Y50	Z50	X51	Y51	Z51	X52	Y52	Z52	X53	Y53	Z53	X54	Y54	Z54	X55	Y55	Z55	X56	Y56	Z56	X57	Y57	Z57	X58	Y58	Z58	X59	Y59	Z59	X60	Y60	Z60	X61	Y61	Z61	X62	Y62	Z62	X63	Y63	Z63	X64	Y64	Z64	X65	Y65	Z65	X66	Y66	Z66	X67	Y67	Z67	X68	Y68	Z68	X69	Y69	Z69	X70	Y70	Z70	X71	Y71	Z71	X72	Y72	Z72	X73	Y73	Z73	X74	Y74	Z74	X75	Y75	Z75	X76	Y76	Z76	

66	0.65	-475.1188964843749	1172.392578125	306.0830078124999	-498.0980224609374	1192.051635742188	185.1766357421875	-376.9472961425781	1133.031005859375	171.3636779785156	-523.9771118164062	927.0703735351562	184.476806640625	-317.0489196777343	929.35693359375	200.8973541259765	-391.9366149902343	830.0496826171875	302.8813171386719	-537.9682006835938	822.510986328125	225.4986877441406	-534.0004272460938	825.868408203125	145.6075134277343	-387.0629882812499	831.326171875	77.51918792724607	-548.3554077148438	597.31396484375	306.1726379394531	-521.3186645507812	541.9693603515625	341.8235168457031	-563.27392578125	496.7844848632813	319.3185119628906	-549.1231689453125	520.3123779296875	370.1055297851562	-571.7424926757812	406.3644714355469	335.7707824707031	-527.4078979492188	366.0693054199219	241.9781494140625	-493.0343017578125	361.3356018066407	317.3283996582031	-689.0977783203125	248.4307098388672	280.6637573242187	-740.9407958984375	242.717514038086	323.4975280761718	-768.6336059570312	200.8570556640626	274.4577026367187	-800.62109375	268.5791625976563	356.2886352539062	-864.0025634765625	205.5494842529297	305.8746032714843	-834.921142578125	177.8798217773438	240.7525939941406	-884.0340576171875	235.7061462402344	250.629165649414	-882.505615234375	69.80153656005865	303.8593749999999	-910.2235107421875	99.46835327148443	326.9968566894531	-400.7560119628906	543.7573852539062	75.02935791015622	-341.9727478027343	515.967041015625	58.58554458618162	-350.074462890625	459.9267883300781	92.29060363769528	-321.0112915039062	499.6435241699219	26.36247634887693	-288.396728515625	418.9071044921875	73.21546173095702	-273.8692626953125	426.4682312011719	180.5477447509765	-220.4522399902343	452.5105895996094	125.2831497192383	-273.3111267089844	227.4659881591797	150.5228729248047	-298.3526000976562	178.4499664306641	105.050178527832	-291.8748168945312	131.4119262695313	164.6759033203125	-341.5034790039062	146.161117553711	68.56822204589842	-352.5680236816406	57.35091400146487	126.5390167236328	-329.69189453125	73.97813415527345	200.3263397216797	-395.3767700195312	34.5410957336426	181.4773559570312	-215.8580322265625	32.76289749145509	140.0856323242188	-250.6738891601562	20.32998275756837	101.4400939941406	nan	nan	nan	nan	nan	nan	nan	nan	nan	nan	nan	nan	nan	nan	nan	nan	nan	nan	nan	nan	nan	nan	nan	nan	nan	nan	nan	nan	nan	nan	nan	nan	nan	nan	nan	nan	nan	nan	nan	nan	nan	nan	nan	nan	nan	nan	nan	nan	nan	nan	nan	nan	nan	nan	nan	nan	nan	nan	nan	nan	nan	nan	nan	nan	nan	nan	nan	nan	nan	nan	nan	nan	nan	nan	nan	nan	nan	nan	nan	nan	nan	nan	nan	nan	nan	nan	nan	nan	nan	nan	nan	nan	nan	nan	nan	nan	nan	nan	nan	nan	nan	nan	nan	nan	nan	
67	0.66	-458.8411254882812	1173.00732421875	305.4869689941406	-482.7886047363281	1193.0859375	184.6995391845703	-361.7403564453124	1133.848388671875	169.9699554443359	-508.9063720703124	928.1477661132812	184.6510772705078	-301.8276062011718	929.7962036132812	198.7145233154297	-375.5315246582031	829.7747802734375	300.8943786621094	-522.39111328125	822.51171875	225.4274444580078	-519.4971313476562	827.1500854492188	145.4823455810547	-373.7985534667968	833.7118530273438	74.72929382324216	-525.2010498046875	593.15185546875	305.1286621093749	-495.8258972167968	539.0233154296875	340.8296508789062	-536.2208251953125	492.2564392089844	318.8777465820312	-522.5902709960938	516.4293823242188	369.4637451171874	-541.32763671875	402.8371276855469	336.3643188476562	-497.8765258789062	363.2424621582032	241.5858917236328	-462.3309326171875	358.4575500488281	316.2125549316406	-662.4666748046875	249.4372253417969	280.8038024902343	-713.0506591796875	245.6689605712891	324.8054199218749	-743.7266845703125	204.7025604248047	274.7040100097656	-772.3695068359375	272.1771850585938	357.9664306640624	-838.4431762695312	212.7536315917969	307.0990600585937	-811.2439575195312	184.5778198242188	241.2968139648437	-857.4642333984375	244.8251190185547	252.4498901367187	-864.3932495117188	77.7096786499024	303.7189636230468	-889.822509765625	109.160385131836	327.4756164550781	-390.0339660644531	544.9860229492188	72.97367095947263	-331.5376892089843	516.1448364257812	57.42049789428709	-341.2472534179688	460.1797180175781	91.03551483154295	-310.1959838867187	499.6551208496094	25.54104232788084	-280.3496704101562	417.8840942382812	73.02722167968749	-267.4757385253906	425.1304931640625	180.5986022949218	-212.4696655273437	450.270751953125	126.1762924194336	-269.7785339355469	226.387939453125	150.8108673095703	-295.3367309570312	177.7445068359375	105.1804809570312	-290.1788635253906	130.7540893554688	164.9390563964843	-338.7583618164062	146.1853179931641	68.33946990966795	-351.9436340332031	57.65377044677737	126.4136810302734	-329.1978759765625	74.00693511962892	200.3939666748047	-395.1831970214844	35.18433380126955	181.3978576660156	-215.7729034423828	32.62305831909181	140.1816101074219	-250.5802307128906	20.34636306762697	101.4870300292969	nan	nan	nan	nan	nan	nan	nan	nan	nan	nan	nan	nan	nan	nan	nan	nan	nan	nan	nan	nan	nan	nan	nan	nan	nan	nan	nan	nan	nan	nan	nan	nan	nan	nan	nan	nan	nan	nan	nan	nan	nan	nan	nan	nan	nan	nan	nan	nan	nan	nan	nan	nan	nan	nan	nan	nan	nan	nan	nan	nan	nan	nan	nan	nan	nan	nan	nan	nan	nan	nan	nan	nan	nan	nan	nan	nan	nan	nan	nan	nan	nan	nan	nan	nan	nan	nan	nan	nan	nan	nan	nan	nan	nan	nan	nan	nan	nan	nan	nan	nan	nan	nan	nan	nan	nan	
68	0.67	-442.8907775878906	1173.912963867188	305.0672607421875	-467.6554260253906	1194.4541015625	184.37451171875	-346.7908020019531	1134.943359375	168.8455810546875	-494.1679382324218	929.5941162109375	184.832275390625	-286.9489135742187	930.55615234375	196.7116241455078	-359.7758178710937	830.074462890625	299.1436157226562	-507.2308044433593	822.9969482421875	225.2561645507812	-505.3937377929687	828.7597045898438	145.3211669921875	-360.8878479003906	836.1857299804688	72.10487365722653	-502.2749633789062	589.5709228515625	303.8811645507812	-470.5145874023437	536.8129272460938	339.5831298828124	-509.0976867675781	488.4446105957032	317.9977722167968	-496.3444213867187	513.26611328125	368.3499755859374	-510.4086303710938	400.0473327636719	336.5553283691406	-468.0568542480469	361.6227416992188	240.5018005371093	-430.9675598144531	356.7511291503906	314.4729919433594	-634.6746215820312	250.8438415527344	280.5381164550781	-683.810546875	248.8244171142578	325.7099609374999	-717.3546752929688	208.7210235595704	274.5960693359374	-742.770751953125	275.6081848144532	359.4410095214843	-811.3267822265625	219.4252319335938	308.2895202636718	-785.9971923828125	191.2752532958985	241.6438293457031	-830.123046875	253.0618286132813	254.4128265380859	-841.9757690429688	85.25504302978521	303.5530395507812	-865.6983642578125	117.6510009765626	328.1325683593749	-380.1305541992187	546.400390625	71.05543518066403	-321.9519653320312	516.4890747070312	56.39761734008787	-333.3953552246094	460.6263122558594	89.8172149658203	-300.2525329589843	499.8020324707031	24.86471939086912	-273.3668518066406	417.0241088867188	72.9229278564453	-262.0459594726562	423.865966796875	180.6916198730468	-205.6022796630859	448.0920715332031	127.0779418945312	-266.8305358886719	225.5135192871094	150.9463653564453	-292.9248962402344	177.1646881103516	105.2051773071289	-288.8054809570312	130.196044921875	165.0487976074218	-336.6428527832031	146.2336883544922	68.14400482177733	-351.5198669433594	57.88907241821291	126.2779312133789	-328.8231506347656	74.05345153808595	200.3670959472656	-395.1010437011719	35.77878189086916	181.2981262207031	-215.7855529785156	32.49634170532228	140.2714538574219	-250.5516815185547	20.32158660888673	101.5275268554687	nan	nan	nan	nan	nan	nan	nan	nan	nan	nan	nan	nan	nan	nan	nan	nan	nan	nan	nan	nan	nan	nan	nan	nan	nan	nan	nan	nan	nan	nan	nan	nan	nan	nan	nan	nan	nan	nan	nan	nan	nan	nan	nan	nan	nan	nan	nan	nan	nan	nan	nan	nan	nan	nan	nan	nan	nan	nan	nan	nan	nan	nan	nan	nan	nan	nan	nan	nan	nan	nan	nan	nan	nan	nan	nan	nan	nan	nan	nan	nan	nan	nan	nan	nan	nan	nan	nan	nan	nan	nan	nan	nan	nan	nan	nan	nan	nan	nan	nan	nan	nan	nan	nan	nan	nan	
69	0.68	-427.3053588867187	1175.104248046875	304.8004150390625	-452.7106018066406	1196.133911132812	184.1868133544922	-332.1036682128906	1136.32421875	167.9905395507812	-479.7245788574218	931.3780517578125	185.0200042724609	-272.3657836914062	931.6809692382812	194.8607788085937	-344.5289001464843	830.9432983398438	297.5663452148438	-492.4317321777343	823.971923828125	225.0301818847656	-491.6468505859374	830.6921997070312	145.1538391113281	-348.2583923339843	838.7215576171875	69.68915557861325	-479.6166076660156	586.656494140625	302.4878540039062	-445.4729919433593	535.4232788085938	338.1541137695312	-482.0399475097656	485.4703979492188	316.7842712402343	-470.4468383789062	510.9111938476563	366.8839721679687	-479.1916809082031	398.1233520507813	336.3598937988281	-437.9836120605469	361.1843872070312	238.8852996826172	-399.1748657226562	356.3010864257812	312.3210754394531	-605.8357543945312	252.5990753173828	279.9144592285156	-653.4815063476562	252.0411682128907	326.1629028320312	-689.6207885742188	212.7430572509766	274.1828002929687	-712.0838623046875	278.8040466308594	360.6357727050781	-782.8390502929688	225.3096313476563	309.3851928710937	-759.2372436523438	197.6790313720704	241.8040771484374	-802.179443359375	260.1619567871094	256.4072875976562	-815.4346923828125	91.88392639160162	303.3466796874999	-838.11279296875	124.4796218872071	328.8534545898437	-371.0447387695312	547.9866943359375	69.34188079833982	-313.2416076660156	516.9782104492188	55.50640869140623	-326.4852600097656	461.2755432128906	88.67710876464842	-291.2652893066406	500.0271606445312	24.29770851135252	-267.396240234375	416.3410949707031	72.86350250244139	-257.3896789550781	422.7500915527344	180.7750091552734	-199.7784271240234	445.9993286132812	127.8606948852539	-264.4105834960938	224.8333435058594	150.9421997070312	-291.0556945800781	176.7151794433594	105.146598815918	-287.7132873535156	129.748764038086	165.0421600341797	-335.0875549316406	146.3317413330078	68.00473785400389	-351.2587280273438	58.08601379394533	126.1763839721679	-328.5301208496094	74.13716888427736	200.2949676513672	-395.09814453125	36.34510040283205	181.2184448242187	-215.8394317626953	32.39354705810548	140.3389282226562	-250.5700531005859	20.28293800354005	101.5581665039062	nan	nan	nan	nan	nan	nan	nan	nan	nan	nan	nan	nan	nan	nan	nan	nan	nan	nan	nan	nan	nan	nan	nan	nan	nan	nan	nan	nan	nan	nan	nan	nan	nan	nan	nan	nan	nan	nan	nan	nan	nan	nan	nan	nan	nan	nan	nan	nan	nan	nan	nan	nan	nan	nan	nan	nan	nan	nan	nan	nan	nan	nan	nan	nan	nan	nan	nan	nan	nan	nan	nan	nan	nan	nan	nan	nan	nan	nan	nan	nan	nan	nan	nan	nan	nan	nan	nan	nan	nan	nan	nan	nan	nan	nan	nan	nan	nan	nan	nan	nan	nan	nan	nan	nan	nan	
